<svg width="70" height="28" viewBox="0 0 70 28" fill="none" xmlns="http://www.w3.org/2000/svg">
<path d="M9.93 15.402L8.868 24H7.89L8.67 17.646C8.682 17.566 8.696 17.478 8.712 17.382C8.732 17.286 8.754 17.186 8.778 17.082L5.424 22.488C5.32 22.66 5.176 22.746 4.992 22.746H4.83C4.742 22.746 4.664 22.724 4.596 22.68C4.532 22.636 4.486 22.572 4.458 22.488L2.382 17.082C2.378 17.178 2.374 17.274 2.37 17.37C2.366 17.462 2.36 17.548 2.352 17.628L1.578 24H0.588L1.644 15.402H2.472C2.572 15.402 2.644 15.416 2.688 15.444C2.732 15.468 2.782 15.518 2.838 15.594L4.92 21C4.948 21.08 4.972 21.16 4.992 21.24C5.012 21.32 5.032 21.402 5.052 21.486C5.092 21.402 5.132 21.32 5.172 21.24C5.212 21.16 5.256 21.08 5.304 21L8.688 15.594C8.756 15.514 8.816 15.462 8.868 15.438C8.92 15.414 8.996 15.402 9.096 15.402H9.93ZM16.1708 17.922L12.0668 25.812C12.0228 25.896 11.9708 25.958 11.9108 25.998C11.8548 26.038 11.7828 26.058 11.6948 26.058H10.9088L12.2288 23.64L10.6508 17.922H11.5328C11.6208 17.922 11.6848 17.944 11.7248 17.988C11.7648 18.028 11.7948 18.08 11.8148 18.144L12.7928 21.972C12.8128 22.056 12.8288 22.14 12.8408 22.224C12.8528 22.308 12.8628 22.392 12.8708 22.476C12.9068 22.392 12.9428 22.308 12.9788 22.224C13.0148 22.136 13.0528 22.05 13.0928 21.966L15.0128 18.132C15.0448 18.068 15.0888 18.018 15.1448 17.982C15.2048 17.942 15.2648 17.922 15.3248 17.922H16.1708Z" fill="#0066B3"/>
<path d="M17.658 16.32L17.286 19.38H20.502L20.382 20.292H17.172L16.716 24H15.588L16.644 15.402H21.54L21.426 16.32H17.658ZM24.2682 18.606C24.0162 18.606 23.7842 18.658 23.5722 18.762C23.3602 18.866 23.1722 19.01 23.0082 19.194C22.8442 19.374 22.7042 19.588 22.5882 19.836C22.4722 20.08 22.3822 20.344 22.3182 20.628C22.9342 20.552 23.4282 20.466 23.8002 20.37C24.1722 20.27 24.4582 20.164 24.6582 20.052C24.8582 19.936 24.9902 19.812 25.0542 19.68C25.1182 19.548 25.1502 19.41 25.1502 19.266C25.1502 19.194 25.1342 19.12 25.1022 19.044C25.0702 18.964 25.0182 18.892 24.9462 18.828C24.8782 18.764 24.7882 18.712 24.6762 18.672C24.5642 18.628 24.4282 18.606 24.2682 18.606ZM25.9602 22.878C25.7562 23.09 25.5562 23.272 25.3602 23.424C25.1642 23.572 24.9642 23.696 24.7602 23.796C24.5602 23.896 24.3482 23.968 24.1242 24.012C23.9042 24.06 23.6662 24.084 23.4102 24.084C23.0622 24.084 22.7502 24.026 22.4742 23.91C22.1982 23.794 21.9642 23.63 21.7722 23.418C21.5802 23.202 21.4322 22.942 21.3282 22.638C21.2242 22.334 21.1722 21.994 21.1722 21.618C21.1722 21.306 21.2042 20.996 21.2682 20.688C21.3362 20.376 21.4322 20.08 21.5562 19.8C21.6842 19.52 21.8382 19.26 22.0182 19.02C22.2022 18.78 22.4102 18.574 22.6422 18.402C22.8782 18.226 23.1362 18.088 23.4162 17.988C23.7002 17.888 24.0042 17.838 24.3282 17.838C24.6362 17.838 24.9022 17.882 25.1262 17.97C25.3502 18.058 25.5342 18.17 25.6782 18.306C25.8222 18.442 25.9282 18.592 25.9962 18.756C26.0682 18.92 26.1042 19.076 26.1042 19.224C26.1042 19.488 26.0502 19.732 25.9422 19.956C25.8342 20.176 25.6362 20.376 25.3482 20.556C25.0602 20.732 24.6642 20.886 24.1602 21.018C23.6562 21.15 23.0082 21.256 22.2162 21.336C22.2162 21.38 22.2142 21.424 22.2102 21.468C22.2102 21.508 22.2102 21.55 22.2102 21.594C22.2102 22.13 22.3262 22.54 22.5582 22.824C22.7942 23.104 23.1482 23.244 23.6202 23.244C23.8122 23.244 23.9822 23.224 24.1302 23.184C24.2822 23.144 24.4162 23.096 24.5322 23.04C24.6522 22.98 24.7562 22.916 24.8442 22.848C24.9362 22.776 25.0182 22.712 25.0902 22.656C25.1662 22.596 25.2362 22.546 25.3002 22.506C25.3642 22.466 25.4282 22.446 25.4922 22.446C25.5682 22.446 25.6362 22.48 25.6962 22.548L25.9602 22.878ZM29.987 18.606C29.735 18.606 29.503 18.658 29.291 18.762C29.079 18.866 28.891 19.01 28.727 19.194C28.563 19.374 28.423 19.588 28.307 19.836C28.191 20.08 28.101 20.344 28.037 20.628C28.653 20.552 29.147 20.466 29.519 20.37C29.891 20.27 30.177 20.164 30.377 20.052C30.577 19.936 30.709 19.812 30.773 19.68C30.837 19.548 30.869 19.41 30.869 19.266C30.869 19.194 30.853 19.12 30.821 19.044C30.789 18.964 30.737 18.892 30.665 18.828C30.597 18.764 30.507 18.712 30.395 18.672C30.283 18.628 30.147 18.606 29.987 18.606ZM31.679 22.878C31.475 23.09 31.275 23.272 31.079 23.424C30.883 23.572 30.683 23.696 30.479 23.796C30.279 23.896 30.067 23.968 29.843 24.012C29.623 24.06 29.385 24.084 29.129 24.084C28.781 24.084 28.469 24.026 28.193 23.91C27.917 23.794 27.683 23.63 27.491 23.418C27.299 23.202 27.151 22.942 27.047 22.638C26.943 22.334 26.891 21.994 26.891 21.618C26.891 21.306 26.923 20.996 26.987 20.688C27.055 20.376 27.151 20.08 27.275 19.8C27.403 19.52 27.557 19.26 27.737 19.02C27.921 18.78 28.129 18.574 28.361 18.402C28.597 18.226 28.855 18.088 29.135 17.988C29.419 17.888 29.723 17.838 30.047 17.838C30.355 17.838 30.621 17.882 30.845 17.97C31.069 18.058 31.253 18.17 31.397 18.306C31.541 18.442 31.647 18.592 31.715 18.756C31.787 18.92 31.823 19.076 31.823 19.224C31.823 19.488 31.769 19.732 31.661 19.956C31.553 20.176 31.355 20.376 31.067 20.556C30.779 20.732 30.383 20.886 29.879 21.018C29.375 21.15 28.727 21.256 27.935 21.336C27.935 21.38 27.933 21.424 27.929 21.468C27.929 21.508 27.929 21.55 27.929 21.594C27.929 22.13 28.045 22.54 28.277 22.824C28.513 23.104 28.867 23.244 29.339 23.244C29.531 23.244 29.701 23.224 29.849 23.184C30.001 23.144 30.135 23.096 30.251 23.04C30.371 22.98 30.475 22.916 30.563 22.848C30.655 22.776 30.737 22.712 30.809 22.656C30.885 22.596 30.955 22.546 31.019 22.506C31.083 22.466 31.147 22.446 31.211 22.446C31.287 22.446 31.355 22.48 31.415 22.548L31.679 22.878ZM36.9292 19.248C36.7772 19.032 36.5932 18.882 36.3772 18.798C36.1652 18.71 35.9492 18.666 35.7292 18.666C35.4132 18.666 35.1292 18.76 34.8772 18.948C34.6252 19.136 34.4092 19.38 34.2292 19.68C34.0532 19.976 33.9172 20.308 33.8212 20.676C33.7252 21.044 33.6772 21.406 33.6772 21.762C33.6772 22.238 33.7612 22.602 33.9292 22.854C34.1012 23.102 34.3452 23.226 34.6612 23.226C34.8532 23.226 35.0472 23.166 35.2432 23.046C35.4392 22.926 35.6272 22.76 35.8072 22.548C35.9912 22.332 36.1612 22.078 36.3172 21.786C36.4772 21.494 36.6152 21.174 36.7312 20.826L36.9292 19.248ZM38.4772 15.162L37.3912 24H36.8332C36.6932 24 36.5992 23.964 36.5512 23.892C36.5032 23.82 36.4792 23.732 36.4792 23.628L36.5932 22.35C36.4412 22.614 36.2752 22.852 36.0952 23.064C35.9152 23.276 35.7252 23.458 35.5252 23.61C35.3292 23.762 35.1232 23.88 34.9072 23.964C34.6952 24.044 34.4792 24.084 34.2592 24.084C33.7392 24.084 33.3352 23.896 33.0472 23.52C32.7592 23.14 32.6152 22.59 32.6152 21.87C32.6152 21.542 32.6492 21.214 32.7172 20.886C32.7852 20.558 32.8812 20.244 33.0052 19.944C33.1332 19.644 33.2852 19.366 33.4612 19.11C33.6412 18.85 33.8412 18.626 34.0612 18.438C34.2812 18.25 34.5172 18.102 34.7692 17.994C35.0252 17.886 35.2932 17.832 35.5732 17.832C35.8732 17.832 36.1452 17.892 36.3892 18.012C36.6372 18.128 36.8472 18.294 37.0192 18.51L37.4332 15.162H38.4772Z" fill="#0066B3"/>
<path d="M7.98162 12.9306C10.1886 12.2839 11.9342 13.3613 12.3464 15.6238" stroke="url(#paint0_linear)" stroke-linecap="round" stroke-linejoin="round"/>
<path d="M9.53502 16.6935C9.99763 16.5696 10.2722 16.0941 10.1482 15.6315C10.0242 15.1689 9.54875 14.8943 9.08614 15.0183C8.62354 15.1423 8.34901 15.6178 8.47296 16.0804C8.59691 16.543 9.07242 16.8175 9.53502 16.6935Z" fill="#0066B3"/>
<path d="M7.42444 10.578C11.1031 9.50062 14.0125 11.2958 14.699 15.0666" stroke="url(#paint1_linear)" stroke-linecap="round" stroke-linejoin="round"/>
<path d="M34.1283 12.4119C34.0373 8.5032 36.5746 6.11072 40.4714 6.42943" stroke="url(#paint2_linear)" stroke-width="2" stroke-linecap="round" stroke-linejoin="round"/>
<path d="M40.9904 11.5599C41.0142 10.746 40.3737 10.0669 39.5599 10.0431C38.746 10.0193 38.0669 10.6598 38.0431 11.4736C38.0193 12.2875 38.6598 12.9666 39.4736 12.9904C40.2875 13.0142 40.9666 12.3737 40.9904 11.5599Z" fill="#FF9800"/>
<path d="M30.0197 12.2917C29.8691 5.77677 34.0972 1.78906 40.5916 2.32088" stroke="url(#paint3_linear)" stroke-width="2" stroke-linecap="round" stroke-linejoin="round"/>
<path d="M30.0197 12.2917C29.8691 5.77677 34.0972 1.78906 40.5916 2.32088" stroke="url(#paint4_linear)" stroke-width="2" stroke-linecap="round" stroke-linejoin="round"/>
<path d="M43.535 17.052C43.949 17.052 44.3 17.001 44.588 16.899C44.882 16.791 45.122 16.644 45.308 16.458C45.494 16.272 45.629 16.056 45.713 15.81C45.797 15.558 45.839 15.288 45.839 15C45.839 14.424 45.65 13.974 45.272 13.65C44.9 13.326 44.321 13.164 43.535 13.164H42.311V17.052H43.535ZM49.997 24H47.243C46.733 24 46.367 23.808 46.145 23.424L43.967 19.617C43.865 19.455 43.751 19.338 43.625 19.266C43.499 19.188 43.319 19.149 43.085 19.149H42.311V24H39.269V10.887H43.535C44.483 10.887 45.29 10.986 45.956 11.184C46.628 11.376 47.174 11.646 47.594 11.994C48.02 12.342 48.329 12.753 48.521 13.227C48.713 13.701 48.809 14.217 48.809 14.775C48.809 15.201 48.752 15.603 48.638 15.981C48.524 16.359 48.356 16.71 48.134 17.034C47.912 17.352 47.636 17.637 47.306 17.889C46.982 18.141 46.607 18.348 46.181 18.51C46.379 18.612 46.565 18.741 46.739 18.897C46.913 19.047 47.069 19.227 47.207 19.437L49.997 24ZM58.3441 13.551C58.2541 13.695 58.1581 13.803 58.0561 13.875C57.9601 13.947 57.8341 13.983 57.6781 13.983C57.5401 13.983 57.3901 13.941 57.2281 13.857C57.0721 13.767 56.8921 13.668 56.6881 13.56C56.4901 13.452 56.2621 13.356 56.0041 13.272C55.7461 13.182 55.4521 13.137 55.1221 13.137C54.5521 13.137 54.1261 13.26 53.8441 13.506C53.5681 13.746 53.4301 14.073 53.4301 14.487C53.4301 14.751 53.5141 14.97 53.6821 15.144C53.8501 15.318 54.0691 15.468 54.3391 15.594C54.6151 15.72 54.9271 15.837 55.2751 15.945C55.6291 16.047 55.9891 16.164 56.3551 16.296C56.7211 16.422 57.0781 16.572 57.4261 16.746C57.7801 16.92 58.0921 17.142 58.3621 17.412C58.6381 17.682 58.8601 18.012 59.0281 18.402C59.1961 18.786 59.2801 19.251 59.2801 19.797C59.2801 20.403 59.1751 20.97 58.9651 21.498C58.7551 22.026 58.4491 22.488 58.0471 22.884C57.6511 23.274 57.1591 23.583 56.5711 23.811C55.9891 24.033 55.3261 24.144 54.5821 24.144C54.1741 24.144 53.7571 24.102 53.3311 24.018C52.9111 23.934 52.5031 23.817 52.1071 23.667C51.7111 23.511 51.3391 23.328 50.9911 23.118C50.6431 22.908 50.3401 22.674 50.0821 22.416L50.9821 20.994C51.0541 20.892 51.1471 20.808 51.2611 20.742C51.3811 20.67 51.5101 20.634 51.6481 20.634C51.8281 20.634 52.0081 20.691 52.1881 20.805C52.3741 20.919 52.5811 21.045 52.8091 21.183C53.0431 21.321 53.3101 21.447 53.6101 21.561C53.9101 21.675 54.2641 21.732 54.6721 21.732C55.2241 21.732 55.6531 21.612 55.9591 21.372C56.2651 21.126 56.4181 20.739 56.4181 20.211C56.4181 19.905 56.3341 19.656 56.1661 19.464C55.9981 19.272 55.7761 19.113 55.5001 18.987C55.2301 18.861 54.9211 18.75 54.5731 18.654C54.2251 18.558 53.8681 18.453 53.5021 18.339C53.1361 18.219 52.7791 18.075 52.4311 17.907C52.0831 17.733 51.7711 17.508 51.4951 17.232C51.2251 16.95 51.0061 16.602 50.8381 16.188C50.6701 15.768 50.5861 15.252 50.5861 14.64C50.5861 14.148 50.6851 13.668 50.8831 13.2C51.0811 12.732 51.3721 12.315 51.7561 11.949C52.1401 11.583 52.6111 11.292 53.1691 11.076C53.7271 10.854 54.3661 10.743 55.0861 10.743C55.4881 10.743 55.8781 10.776 56.2561 10.842C56.6401 10.902 57.0031 10.995 57.3451 11.121C57.6871 11.241 58.0051 11.388 58.2991 11.562C58.5991 11.73 58.8661 11.922 59.1001 12.138L58.3441 13.551ZM68.3109 13.551C68.2209 13.695 68.1249 13.803 68.0229 13.875C67.9269 13.947 67.8009 13.983 67.6449 13.983C67.5069 13.983 67.3569 13.941 67.1949 13.857C67.0389 13.767 66.8589 13.668 66.6549 13.56C66.4569 13.452 66.2289 13.356 65.9709 13.272C65.7129 13.182 65.4189 13.137 65.0889 13.137C64.5189 13.137 64.0929 13.26 63.8109 13.506C63.5349 13.746 63.3969 14.073 63.3969 14.487C63.3969 14.751 63.4809 14.97 63.6489 15.144C63.8169 15.318 64.0359 15.468 64.3059 15.594C64.5819 15.72 64.8939 15.837 65.2419 15.945C65.5959 16.047 65.9559 16.164 66.3219 16.296C66.6879 16.422 67.0449 16.572 67.3929 16.746C67.7469 16.92 68.0589 17.142 68.3289 17.412C68.6049 17.682 68.8269 18.012 68.9949 18.402C69.1629 18.786 69.2469 19.251 69.2469 19.797C69.2469 20.403 69.1419 20.97 68.9319 21.498C68.7219 22.026 68.4159 22.488 68.0139 22.884C67.6179 23.274 67.1259 23.583 66.5379 23.811C65.9559 24.033 65.2929 24.144 64.5489 24.144C64.1409 24.144 63.7239 24.102 63.2979 24.018C62.8779 23.934 62.4699 23.817 62.0739 23.667C61.6779 23.511 61.3059 23.328 60.9579 23.118C60.6099 22.908 60.3069 22.674 60.0489 22.416L60.9489 20.994C61.0209 20.892 61.1139 20.808 61.2279 20.742C61.3479 20.67 61.4769 20.634 61.6149 20.634C61.7949 20.634 61.9749 20.691 62.1549 20.805C62.3409 20.919 62.5479 21.045 62.7759 21.183C63.0099 21.321 63.2769 21.447 63.5769 21.561C63.8769 21.675 64.2309 21.732 64.6389 21.732C65.1909 21.732 65.6199 21.612 65.9259 21.372C66.2319 21.126 66.3849 20.739 66.3849 20.211C66.3849 19.905 66.3009 19.656 66.1329 19.464C65.9649 19.272 65.7429 19.113 65.4669 18.987C65.1969 18.861 64.8879 18.75 64.5399 18.654C64.1919 18.558 63.8349 18.453 63.4689 18.339C63.1029 18.219 62.7459 18.075 62.3979 17.907C62.0499 17.733 61.7379 17.508 61.4619 17.232C61.1919 16.95 60.9729 16.602 60.8049 16.188C60.6369 15.768 60.5529 15.252 60.5529 14.64C60.5529 14.148 60.6519 13.668 60.8499 13.2C61.0479 12.732 61.3389 12.315 61.7229 11.949C62.1069 11.583 62.5779 11.292 63.1359 11.076C63.6939 10.854 64.3329 10.743 65.0529 10.743C65.4549 10.743 65.8449 10.776 66.2229 10.842C66.6069 10.902 66.9699 10.995 67.3119 11.121C67.6539 11.241 67.9719 11.388 68.2659 11.562C68.5659 11.73 68.8329 11.922 69.0669 12.138L68.3109 13.551Z" fill="url(#paint5_linear)"/>
<defs>
<linearGradient id="paint0_linear" x1="11.1112" y1="12.3109" x2="10.2794" y2="13.7518" gradientUnits="userSpaceOnUse">
<stop offset="0.0646637" stop-color="#0079D5"/>
<stop offset="1" stop-color="#00243F"/>
</linearGradient>
<linearGradient id="paint1_linear" x1="11.7908" y1="10.302" x2="10.8271" y2="12.3871" gradientUnits="userSpaceOnUse">
<stop stop-color="#00243F"/>
<stop offset="1" stop-color="#00599D"/>
</linearGradient>
<linearGradient id="paint2_linear" x1="34.4877" y1="7.00001" x2="36.4877" y2="9.00001" gradientUnits="userSpaceOnUse">
<stop offset="0.0646637" stop-color="#AA6601"/>
<stop offset="1" stop-color="#FF9800"/>
</linearGradient>
<linearGradient id="paint3_linear" x1="31.4877" y1="5.00001" x2="34.4877" y2="7.50001" gradientUnits="userSpaceOnUse">
<stop stop-color="#FFB344"/>
<stop offset="1" stop-color="#C37501"/>
</linearGradient>
<linearGradient id="paint4_linear" x1="31.4877" y1="5.00001" x2="34.4877" y2="7.50001" gradientUnits="userSpaceOnUse">
<stop stop-color="#FFB344"/>
<stop offset="1" stop-color="#C37501"/>
</linearGradient>
<linearGradient id="paint5_linear" x1="40.6667" y1="11.5" x2="55.3922" y2="23.4159" gradientUnits="userSpaceOnUse">
<stop stop-color="#FF9800"/>
<stop offset="0.473958" stop-color="#FF9800"/>
<stop offset="1" stop-color="#AA6601"/>
</linearGradient>
</defs>
</svg>
